PathFileType	4	(X/Y/Z)	c:/Users/goper/Files/vsCode/490R/osim_files/A06/A06_Slow_02.trc
DataRate	CameraRate	NumFrames	NumMarkers	Units                	OrigDataRate	OrigDataStartFrame	OrigNumFrames
120.00	120.00	10	36	mm	120.0	578	1154
                Frame#	Time	LPSIS			LASIS			LTH1			LTH2			LTH3			LTH4			LLFE			LMFE			LSH1			LSH2			LSH3			LSH4			LLMAL			LMMAL			LCAL			LMTP5			LTOE			LMTP1			RPSIS			RASIS			RTH1			RTH2			RTH3			RTH4			RLFE			RMFE			RSH1			RSH2			RSH3			RSH4			RLMAL			RMMAL			RCAL			RMTP1			RTOE			RMTP5		
		X1	Y1	Z1	X2	Y2	Z2	X3	Y3	Z3	X4	Y4	Z4	X5	Y5	Z5	X6	Y6	Z6	X7	Y7	Z7	X8	Y8	Z8	X9	Y9	Z9	X10	Y10	Z10	X11	Y11	Z11	X12	Y12	Z12	X13	Y13	Z13	X14	Y14	Z14	X15	Y15	Z15	X16	Y16	Z16	X17	Y17	Z17	X18	Y18	Z18	X19	Y19	Z19	X20	Y20	Z20	X21	Y21	Z21	X22	Y22	Z22	X23	Y23	Z23	X24	Y24	Z24	X25	Y25	Z25	X26	Y26	Z26	X27	Y27	Z27	X28	Y28	Z28	X29	Y29	Z29	X30	Y30	Z30	X31	Y31	Z31	X32	Y32	Z32	X33	Y33	Z33	X34	Y34	Z34	X35	Y35	Z35	X36	Y36	Z36

578	4.80833	-602.23706	994.83710	296.25922	-787.18988	944.40131	373.17325	-819.52051	593.31732	416.75494	-843.53320	558.15680	411.67917	-878.68518	620.26337	409.33286	-891.55798	579.67688	405.38660	-895.39490	501.77063	395.96609	-902.50653	500.24759	286.49380	-848.96075	401.62296	403.84512	-862.50623	355.81223	407.71161	-910.29822	411.85965	400.25092	-914.49042	369.79401	403.03799	-896.77075	105.33208	359.33792	-920.36755	124.60632	279.68271	-838.16406	89.69962	301.45776	-1014.69763	67.73371	385.12393	-1054.93787	100.09660	336.67737	-1037.43408	90.18790	295.57242	-609.16669	1005.69147	165.03027	-782.90662	959.66046	113.11317	-618.01703	595.38318	88.70818	-617.11493	552.86987	90.04770	-679.39905	586.77063	94.71709	-669.23444	543.65021	93.18178	-624.61835	436.92065	118.93136	-630.64380	440.63397	208.12587	-579.71973	286.71265	139.71883	-572.38745	240.09572	144.42172	-638.37207	274.06638	148.52766	-623.51611	227.66522	146.80946	-546.27649	102.31844	141.81201	-563.54938	106.37735	223.32985	-491.38086	84.68671	193.13162	-693.88477	54.76044	211.06696	-708.28015	65.52869	169.20680	-676.67780	50.54465	123.52973
579	4.81667	-610.78400	993.90240	296.59665	-795.92419	943.14380	372.98422	-826.63519	591.36841	415.19836	-850.60718	556.22986	409.98260	-885.96533	618.33563	407.91174	-898.65942	577.76819	403.79346	-903.13965	500.65314	393.83133	-910.31476	499.10175	284.58902	-861.03577	399.63040	403.28384	-876.20233	354.09390	406.55002	-921.63055	411.86508	398.84192	-927.40601	369.46021	401.41812	-923.17023	104.62156	359.42291	-946.42725	124.89860	279.47812	-865.31165	86.21586	301.42224	-1042.85876	72.89188	385.54019	-1081.43176	107.11998	337.21683	-1064.65051	96.42731	295.97366	-617.19934	1005.11267	165.46797	-790.96033	958.79529	113.02229	-623.55530	595.46631	88.82114	-622.27600	553.00885	90.15253	-684.77020	586.15723	94.76006	-674.33862	543.18506	93.25909	-628.32837	436.95462	119.13664	-634.66345	440.54053	208.23827	-582.23608	287.16843	139.72649	-575.07556	240.38815	143.73349	-640.78845	274.00360	148.48813	-625.45734	227.73865	146.70888	-546.40326	102.66382	141.73691	-563.83618	106.55865	223.36969	-491.55350	85.00996	193.11693	-694.00293	54.69288	211.04819	-708.39484	65.32262	169.24203	-676.79816	50.47982	123.55943
580	4.82500	-619.46051	992.83704	297.11462	-804.89233	941.93585	372.83310	-833.84320	589.16339	413.69031	-857.78247	554.04456	408.21149	-893.09076	616.10577	406.49768	-905.89850	575.52936	402.07803	-910.70898	499.33734	391.87518	-917.76001	497.79092	282.79398	-872.84711	397.11313	401.68591	-889.30005	353.00201	405.70447	-932.42828	412.01154	397.67377	-939.57782	368.09595	399.72784	-948.89374	104.48681	359.51300	-971.64813	126.21522	279.51736	-892.14447	83.24908	301.50241	-1069.86304	78.51028	385.93051	-1106.93164	114.32661	337.61282	-1090.61072	103.35982	296.56339	-625.49744	1004.38770	165.84843	-798.86383	957.92719	112.81592	-629.42761	595.43451	88.91730	-627.44940	553.06482	90.26656	-690.68011	585.64264	94.89486	-679.44037	542.66095	93.29302	-632.39966	436.97275	119.26138	-638.87372	440.49344	208.27605	-584.84253	287.62402	139.78331	-577.17242	240.95200	143.83688	-643.23279	273.85178	148.59407	-627.52954	227.76118	146.81477	-546.69824	102.89881	141.76044	-563.96008	106.89730	223.62088	-491.80469	85.30816	193.15105	-694.16705	54.50475	211.07510	-708.59668	65.11677	169.29630	-676.91339	50.42069	123.57849
581	4.83333	-628.05554	991.71442	297.71088	-814.00189	940.64062	372.65829	-840.98456	586.77112	412.42038	-864.74011	551.67603	406.62112	-900.22821	613.60028	405.14557	-912.79742	573.07629	400.38412	-918.25970	497.73737	390.11490	-925.00256	496.17697	281.24405	-884.18457	394.67871	399.98596	-902.11578	351.41711	404.31949	-943.16730	411.79044	396.30743	-951.22577	367.17075	398.28159	-973.63226	104.96510	359.43759	-995.36365	127.54211	279.48547	-918.12115	81.08615	301.45676	-1095.50745	84.52507	386.11496	-1131.08411	121.81205	337.85291	-1114.78967	109.67136	297.13174	-633.45343	1003.62268	166.44753	-806.74030	957.04285	112.70169	-635.31433	595.40948	89.03532	-632.87567	553.12897	90.40659	-696.27985	585.02661	94.95886	-684.89886	542.18933	93.40214	-636.57410	436.99533	119.32525	-643.01807	440.36276	208.37914	-587.43842	288.09479	139.82301	-579.34393	241.50386	143.78702	-645.81525	273.80170	148.53642	-629.51093	227.86902	146.80878	-546.95648	103.18708	141.78665	-564.39716	107.07184	223.62598	-492.06561	85.64554	193.20511	-694.26617	54.33066	211.10664	-708.45947	64.56369	169.33371	-677.02393	50.34839	123.59298
582	4.84167	-636.70306	990.52368	298.35336	-823.09955	939.35712	372.31024	-848.03021	584.28302	411.31503	-871.68408	549.19659	405.25339	-907.22052	611.03204	403.80859	-919.79071	570.48877	398.86612	-925.47375	495.85876	388.52664	-932.10907	494.30908	279.92709	-895.18494	391.63788	397.50858	-914.29962	349.91516	402.98999	-953.48889	411.43002	395.17697	-964.91974	370.18103	398.87915	-997.04315	105.96976	359.14450	-1018.15778	129.09576	279.06680	-942.67706	80.15926	301.23895	-1119.53101	90.58439	386.02567	-1153.69397	129.20772	337.76480	-1138.24854	116.47296	296.99658	-641.49432	1002.81372	167.05133	-814.66577	956.20111	112.50612	-641.21155	595.41528	89.14572	-638.33563	553.12653	90.57685	-702.27545	584.31561	95.05139	-690.36871	541.65497	93.49073	-640.88660	436.95496	119.42258	-647.38153	440.27563	208.49901	-590.20850	288.61862	139.87502	-581.59851	242.04205	143.86392	-648.38354	273.69089	148.63144	-631.82349	228.18617	146.53763	-547.18146	103.55527	141.82771	-565.00604	107.23868	223.61803	-492.27887	86.15073	193.25346	-694.35114	54.20136	211.12459	-708.71881	64.29880	169.23042	-677.15161	50.27962	123.59904
583	4.85000	-645.45618	989.26892	299.11993	-832.66461	938.14496	371.97745	-855.31464	581.86670	410.34149	-878.96179	546.66608	404.17215	-914.53650	608.55597	402.50809	-926.85699	567.98492	397.47357	-932.98688	493.61838	387.15247	-939.14349	492.33493	278.57910	-906.13129	388.95300	395.94650	-926.34229	348.33731	401.84634	-963.63910	410.83560	393.38916	-976.30096	370.27621	397.93793	-1019.48920	107.08952	358.68747	-1039.54199	131.09949	278.69064	-965.80237	79.26917	300.86212	-1142.60803	96.41195	385.42197	-1174.76636	136.15785	337.40955	-1160.05396	123.60403	295.99744	-649.51489	1002.08429	167.69807	-822.49408	955.40393	112.19252	-647.47180	595.37299	89.22029	-643.72119	553.12115	90.91122	-708.14349	583.52667	95.12550	-695.78699	541.02838	93.58118	-645.27777	436.95026	119.54092	-651.85846	440.16516	208.58673	-592.91309	289.23697	139.89903	-583.89215	242.72598	143.91399	-651.16980	273.66275	148.54205	-633.69342	227.76553	147.02924	-547.66290	104.07073	141.86496	-565.22241	107.71099	223.82928	-492.63483	86.88911	193.33032	-694.58624	54.13638	211.12224	-709.00464	64.16393	169.18185	-677.28101	50.23170	123.60420
584	4.85833	-654.11902	988.05017	299.95688	-842.21143	936.88690	371.50494	-862.70868	579.40686	409.25571	-886.01672	544.29163	403.03287	-921.82538	606.05566	401.39148	-934.22375	565.50677	396.20474	-940.33844	491.29965	385.85178	-946.06305	490.37241	277.14969	-916.03528	386.95544	394.70789	-937.81329	346.82587	400.66995	-973.29047	410.29028	392.23898	-987.31049	370.18356	396.74524	-1040.24915	108.21725	357.99432	-1059.39893	133.24529	278.16113	-987.81598	78.42514	299.89084	-1163.80798	101.63886	384.39749	-1194.38660	142.92964	336.55331	-1180.17566	129.89268	294.96896	-657.66925	1001.31061	168.47398	-830.43402	954.65143	111.88512	-653.73108	595.37970	89.30282	-650.02618	552.92249	90.59237	-714.43420	582.89862	95.19312	-701.67725	540.49005	93.70866	-649.84436	436.89032	119.66708	-656.45764	440.16379	208.67706	-595.88110	289.64621	140.11549	-586.26282	243.37364	144.08084	-653.97736	273.34848	148.75868	-635.90448	227.86530	147.13489	-548.23059	104.66015	141.97110	-565.81531	108.21638	224.01671	-493.06610	87.72620	193.50671	-694.86340	54.05266	211.10736	-709.65930	64.36772	169.11279	-677.46088	50.14610	123.62092
585	4.86667	-662.93994	986.67212	300.93375	-851.67987	935.52679	371.02957	-870.13184	577.08801	408.18890	-893.57361	541.82257	401.89413	-929.45825	603.58691	400.28336	-941.68463	563.02228	395.19446	-947.85492	488.88617	384.70493	-953.11993	488.37228	275.75543	-925.69159	385.05057	393.39618	-948.74438	345.31586	399.46854	-982.66693	409.46021	391.18869	-997.68774	370.24121	394.87219	-1059.26917	109.27871	357.10797	-1076.94128	135.31186	277.75729	-1007.68207	77.95391	299.08536	-1183.31067	106.29865	382.94730	-1212.03333	149.30934	335.53671	-1198.44336	136.26802	293.48672	-665.64771	1000.39355	169.36337	-838.49731	954.01074	111.53300	-660.03052	595.30762	89.40815	-656.06689	552.84058	90.66261	-720.78931	582.07166	95.27208	-707.30450	539.83380	93.73009	-654.49097	436.84894	119.76093	-661.24072	439.88974	208.75549	-598.67719	290.37204	140.14394	-588.73566	244.02628	144.18143	-656.66095	273.24969	148.84392	-638.23175	227.96712	147.26942	-548.60187	105.25042	142.15056	-566.36169	108.68346	224.25418	-493.51459	88.60151	193.72882	-695.02490	53.91194	211.14641	-709.96552	64.09933	169.11887	-677.70300	50.18944	123.47091
586	4.87500	-671.59821	985.42877	302.50131	-861.55396	934.11237	370.59857	-878.26062	574.81189	407.02048	-901.56104	539.52423	400.78854	-937.55304	601.24182	399.31711	-949.73871	560.62134	394.13589	-955.79059	486.62997	383.60568	-960.68207	486.34998	274.52982	-935.57129	383.19034	392.17200	-959.44232	343.86160	398.29935	-992.24475	408.61276	390.15399	-1008.02203	369.65344	393.83832	-1077.04138	109.58340	354.91104	-1093.51404	136.47249	275.93280	-1025.72473	77.76248	298.12009	-1201.04492	110.23838	381.08804	-1228.09753	154.14029	333.39627	-1214.90967	141.09251	291.77841	-674.21088	999.30603	170.22418	-846.56360	953.38171	111.13344	-666.74597	595.04688	89.56293	-661.80695	552.76801	90.75117	-727.10614	581.11127	95.22601	-713.42523	539.07965	93.64742	-659.25293	436.77615	119.86594	-665.81317	439.81091	209.20097	-601.87561	290.91409	140.25378	-591.23486	244.74625	144.31807	-659.56024	273.16022	148.91017	-640.55847	228.12515	147.28607	-549.34583	106.13351	142.66194	-567.08136	109.12481	224.52856	-494.02261	89.42513	194.02544	-695.47357	53.62256	210.75664	-710.32318	63.84382	169.16304	-677.54987	48.51890	125.22831
587	4.88333	-682.28094	982.98547	302.17703	-871.35889	932.60248	370.05548	-886.39508	572.93701	405.75925	-909.99744	537.41272	399.52377	-946.17914	599.06818	398.27747	-958.32788	558.43164	393.07779	-964.18701	484.66003	382.61301	-968.26056	484.48438	273.10580	-945.30249	381.43076	390.95465	-969.88281	342.44608	397.11517	-1001.71387	407.58612	389.09619	-1018.22052	368.90558	392.83603	-1092.47949	109.83465	353.38431	-1107.74890	137.38100	274.49368	-1041.41492	77.03562	296.94351	-1216.61768	113.02919	378.73764	-1242.77319	158.23746	330.79358	-1228.99072	144.81102	289.49261	-682.54517	998.26526	171.20403	-854.84216	952.74316	110.68330	-673.53241	594.82306	89.64960	-668.14178	552.52209	90.82276	-734.55042	580.86932	94.77060	-719.46857	538.28595	93.72024	-664.16547	436.68475	119.85323	-671.58020	439.16760	208.28514	-605.00470	291.42645	140.32065	-593.88562	245.50060	144.37488	-662.55450	273.02734	148.89760	-643.03864	228.23123	147.40771	-549.83765	106.64529	142.78607	-567.66571	109.65369	224.59450	-494.43134	90.19611	194.12817	-695.45874	53.58341	210.97328	-710.19940	63.23351	169.14671	-677.82092	48.51863	125.28342
